<svg id="visual" viewBox="0 0 900 600" width="900" height="600" xmlns="http://www.w3.org/2000/svg" xmlns:xlink="http://www.w3.org/1999/xlink" version="1.1"><path d="M0 486L37.5 490.5C75 495 150 504 225 503.3C300 502.7 375 492.3 450 496.2C525 500 600 518 675 523.3C750 528.7 825 521.3 862.5 517.7L900 514L900 601L862.5 601C825 601 750 601 675 601C600 601 525 601 450 601C375 601 300 601 225 601C150 601 75 601 37.5 601L0 601Z" fill="#fa7268"></path><path d="M0 508L37.5 512.5C75 517 150 526 225 527.5C300 529 375 523 450 520.7C525 518.3 600 519.7 675 520.5C750 521.3 825 521.7 862.5 521.8L900 522L900 601L862.5 601C825 601 750 601 675 601C600 601 525 601 450 601C375 601 300 601 225 601C150 601 75 601 37.5 601L0 601Z" fill="#f46767"></path><path d="M0 535L37.5 535.3C75 535.7 150 536.3 225 532C300 527.7 375 518.3 450 518.3C525 518.3 600 527.7 675 529.2C750 530.7 825 524.3 862.5 521.2L900 518L900 601L862.5 601C825 601 750 601 675 601C600 601 525 601 450 601C375 601 300 601 225 601C150 601 75 601 37.5 601L0 601Z" fill="#ee5c67"></path><path d="M0 550L37.5 549.3C75 548.7 150 547.3 225 548.3C300 549.3 375 552.7 450 548.8C525 545 600 534 675 534.2C750 534.3 825 545.7 862.5 551.3L900 557L900 601L862.5 601C825 601 750 601 675 601C600 601 525 601 450 601C375 601 300 601 225 601C150 601 75 601 37.5 601L0 601Z" fill="#e75167"></path><path d="M0 563L37.5 559.2C75 555.3 150 547.7 225 546.2C300 544.7 375 549.3 450 548.5C525 547.7 600 541.3 675 540C750 538.7 825 542.3 862.5 544.2L900 546L900 601L862.5 601C825 601 750 601 675 601C600 601 525 601 450 601C375 601 300 601 225 601C150 601 75 601 37.5 601L0 601Z" fill="#df4667"></path><path d="M0 556L37.5 557C75 558 150 560 225 562C300 564 375 566 450 566.2C525 566.3 600 564.7 675 564.8C750 565 825 567 862.5 568L900 569L900 601L862.5 601C825 601 750 601 675 601C600 601 525 601 450 601C375 601 300 601 225 601C150 601 75 601 37.5 601L0 601Z" fill="#d73b67"></path><path d="M0 567L37.5 566C75 565 150 563 225 562.7C300 562.3 375 563.7 450 564.7C525 565.7 600 566.3 675 568C750 569.7 825 572.3 862.5 573.7L900 575L900 601L862.5 601C825 601 750 601 675 601C600 601 525 601 450 601C375 601 300 601 225 601C150 601 75 601 37.5 601L0 601Z" fill="#cf3068"></path><path d="M0 577L37.5 577.2C75 577.3 150 577.7 225 578.3C300 579 375 580 450 579.3C525 578.7 600 576.3 675 576.3C750 576.3 825 578.7 862.5 579.8L900 581L900 601L862.5 601C825 601 750 601 675 601C600 601 525 601 450 601C375 601 300 601 225 601C150 601 75 601 37.5 601L0 601Z" fill="#c62368"></path></svg>