<svg xmlns="http://www.w3.org/2000/svg" version="1.1" xmlns:xlink="http://www.w3.org/1999/xlink" xmlns:svgjs="http://svgjs.dev/svgjs" width="1440" height="560" preserveAspectRatio="none" viewBox="0 0 1440 560"><g mask="url(&quot;#SvgjsMask1019&quot;)" fill="none"><rect width="1440" height="560" x="0" y="0" fill="rgba(229, 146, 133, 1)"></rect><path d="M0,361.166C71.332,357.592,141.721,351.706,205.935,320.441C276.01,286.322,337.496,238.248,382.766,174.803C435.068,101.504,488.104,20.337,484.265,-69.627C480.306,-162.402,419.635,-240.861,361.922,-313.607C302.067,-389.052,235.884,-462.448,145.736,-496.331C52.015,-531.557,-58.091,-548.638,-148.405,-505.42C-236.101,-463.455,-274.878,-362.365,-317.162,-274.822C-350.838,-205.1,-348.529,-127.956,-367.038,-52.772C-388.139,32.94,-464.459,115.314,-433.566,198.003C-402.876,280.148,-301.711,310.879,-219.639,341.765C-149.429,368.187,-74.923,364.92,0,361.166" fill="#d85d49"></path><path d="M1440 1041.247C1572.901 1049.603 1698.337 1207.065 1816.963 1146.566 1931.833 1087.983 1899.391 910.435 1937.834 787.3530000000001 1970.703 682.117 2028.862 585.898 2026.51 475.673 2023.967 356.48199999999997 1993.521 237.45600000000002 1924.034 140.582 1850.812 38.500999999999976 1746.8690000000001-39.587999999999965 1627.924-80.01099999999997 1506.003-121.44600000000003 1367.604-140.05100000000004 1249.541-88.64499999999998 1135.53-39.00400000000002 1095.6779999999999 97.19299999999998 1011.256 188.49200000000002 923.058 283.874 756.556 330.567 742.487 459.71299999999997 728.329 589.674 883.612 670.739 946.2180000000001 785.5029999999999 1002.867 889.348 987.28 1046.6 1092.319 1101.0030000000002 1198.896 1156.203 1320.213 1033.715 1440 1041.247" fill="#f2c7c1"></path></g><defs><mask id="SvgjsMask1019"><rect width="1440" height="560" fill="#ffffff"></rect></mask></defs></svg>