<svg id="visual" viewBox="0 0 900 600" width="900" height="600" xmlns="http://www.w3.org/2000/svg" xmlns:xlink="http://www.w3.org/1999/xlink" version="1.1"><path d="M0 97L82 103L164 49L245 73L327 73L409 49L491 49L573 103L655 91L736 103L818 79L900 79L900 0L818 0L736 0L655 0L573 0L491 0L409 0L327 0L245 0L164 0L82 0L0 0Z" fill="#00cc8e"></path><path d="M0 355L82 259L164 271L245 253L327 253L409 247L491 205L573 259L655 241L736 193L818 163L900 241L900 77L818 77L736 101L655 89L573 101L491 47L409 47L327 71L245 71L164 47L82 101L0 95Z" fill="#00b98a"></path><path d="M0 409L82 373L164 325L245 373L327 385L409 319L491 283L573 337L655 301L736 331L818 325L900 379L900 239L818 161L736 191L655 239L573 257L491 203L409 245L327 251L245 251L164 269L82 257L0 353Z" fill="#00a784"></path><path d="M0 493L82 457L164 403L245 457L327 493L409 385L491 361L573 439L655 409L736 439L818 397L900 469L900 377L818 323L736 329L655 299L573 335L491 281L409 317L327 383L245 371L164 323L82 371L0 407Z" fill="#00957c"></path><path d="M0 601L82 601L164 601L245 601L327 601L409 601L491 601L573 601L655 601L736 601L818 601L900 601L900 467L818 395L736 437L655 407L573 437L491 359L409 383L327 491L245 455L164 401L82 455L0 491Z" fill="#038373"></path></svg>