<svg xmlns="http://www.w3.org/2000/svg" version="1.1" xmlns:xlink="http://www.w3.org/1999/xlink" xmlns:svgjs="http://svgjs.dev/svgjs" width="1440" height="800" preserveAspectRatio="none" viewBox="0 0 1440 800"><g mask="url(&quot;#SvgjsMask1009&quot;)" fill="none"><rect width="1440" height="800" x="0" y="0" fill="#0e2a47"></rect><path d="M -23.8011174641469,697 C 72.2,630.6 264.2,394.8 456.1988825358531,365 C 648.2,335.2 744.2,569.2 936.198882535853,548 C 1128.2,526.8 1224.2,225.8 1416.198882535853,259 C 1608.2,292.2 1891.44,717.8 1896.198882535853,714 C 1900.96,710.2 1531.24,334.8 1440,240" stroke="rgba(229, 146, 133, 1)" stroke-width="2"></path><path d="M -525.6490306715724,530 C -429.65,472.4 -237.65,254.4 -45.64903067157239,242 C 146.35,229.6 242.35,497.4 434.3509693284276,468 C 626.35,438.6 722.35,87.8 914.3509693284276,95 C 1106.35,102.2 1289.22,464.6 1394.3509693284277,504 C 1499.48,543.4 1430.87,334.4 1440,292" stroke="rgba(229, 146, 133, 1)" stroke-width="2"></path><path d="M -31.51340836681561,166 C 64.49,263 256.49,614.4 448.4865916331844,651 C 640.49,687.6 736.49,342.8 928.4865916331844,349 C 1120.49,355.2 1216.49,674.6 1408.4865916331844,682 C 1600.49,689.4 1882.18,401.4 1888.4865916331844,386 C 1894.79,370.6 1529.7,561.2 1440,605" stroke="rgba(229, 146, 133, 1)" stroke-width="2"></path><path d="M -838.5199621446459,700 C -742.52,616.4 -550.52,337.8 -358.51996214464594,282 C -166.52,226.2 -70.52,412.4 121.48003785535406,421 C 313.48,429.6 409.48,272.4 601.4800378553541,325 C 793.48,377.6 913.78,710 1081.480037855354,684 C 1249.18,658 1368.3,292.8 1440,195" stroke="rgba(229, 146, 133, 1)" stroke-width="2"></path></g><defs><mask id="SvgjsMask1009"><rect width="1440" height="800" fill="#ffffff"></rect></mask></defs></svg>